<svg width="214" height="115" viewBox="0 0 214 115" version="1.1" xmlns="http://www.w3.org/2000/svg" xmlns:xlink="http://www.w3.org/1999/xlink">
<title>Logo</title>
<desc>Created using Figma</desc>
<g id="Canvas" transform="translate(5069 -4538)">
<g id="Logo">
<g id="Vector">
<use xlink:href="#path0_fill" transform="translate(-4995.67 4573.4)" fill="#0079C1"/>
</g>
<g id="Vector">
<use xlink:href="#path1_fill" transform="translate(-4982.47 4573.4)" fill="#0079C1"/>
</g>
<g id="Vector">
<use xlink:href="#path2_fill" transform="translate(-4961.94 4573.28)" fill="#0079C1"/>
</g>
<g id="Vector">
<use xlink:href="#path3_fill" transform="translate(-4942.14 4573.4)" fill="#0079C1"/>
</g>
<g id="Vector">
<use xlink:href="#path4_fill" transform="translate(-4921.73 4573.4)" fill="#0079C1"/>
</g>
<g id="Vector">
<use xlink:href="#path5_fill" transform="translate(-4902.18 4573.4)" fill="#0079C1"/>
</g>
<g id="Vector">
<use xlink:href="#path6_fill" transform="translate(-4882.38 4573.4)" fill="#0079C1"/>
</g>
<g id="Vector">
<use xlink:href="#path7_fill" transform="translate(-4995.67 4639.57)" fill="#0079C1"/>
</g>
<g id="Vector">
<use xlink:href="#path8_fill" transform="translate(-4976.85 4639.57)" fill="#0079C1"/>
</g>
<g id="Vector">
<use xlink:href="#path9_fill" transform="translate(-4960.72 4639.57)" fill="#0079C1"/>
</g>
<g id="Vector">
<use xlink:href="#path10_fill" transform="translate(-4944.95 4639.57)" fill="#0079C1"/>
</g>
<g id="Vector">
<use xlink:href="#path11_fill" transform="translate(-4928.94 4639.57)" fill="#0079C1"/>
</g>
<g id="Vector">
<use xlink:href="#path12_fill" transform="translate(-4912.56 4639.57)" fill="#0079C1"/>
</g>
<g id="Vector">
<use xlink:href="#path13_fill" transform="translate(-4897.65 4639.57)" fill="#0079C1"/>
</g>
<g id="Vector">
<use xlink:href="#path14_fill" transform="translate(-4881.52 4639.57)" fill="#0079C1"/>
</g>
<g id="Vector">
<use xlink:href="#path15_fill" transform="translate(-4864.41 4639.57)" fill="#0079C1"/>
</g>
<g id="Vector">
<use xlink:href="#path16_fill" transform="translate(-5026.27 4538)" fill="#0079C1"/>
</g>
<g id="Vector">
<use xlink:href="#path17_fill" transform="translate(-5069 4573.4)" fill="#0079C1"/>
</g>
<g id="Vector">
<use xlink:href="#path18_fill" transform="translate(-4995.55 4613.08)" fill="#0079C1"/>
</g>
<g id="Vector">
<use xlink:href="#path19_fill" transform="translate(-4991.52 4617.47)" fill="#FFFFFF"/>
</g>
<g id="Vector">
<use xlink:href="#path20_fill" transform="translate(-4976.24 4617.47)" fill="#FFFFFF"/>
</g>
<g id="Vector">
<use xlink:href="#path21_fill" transform="translate(-4966.83 4617.47)" fill="#FFFFFF"/>
</g>
<g id="Vector">
<use xlink:href="#path22_fill" transform="translate(-4949.96 4617.47)" fill="#FFFFFF"/>
</g>
<g id="Vector">
<use xlink:href="#path23_fill" transform="translate(-4939.21 4617.47)" fill="#FFFFFF"/>
</g>
<g id="Vector">
<use xlink:href="#path24_fill" transform="translate(-4929.19 4617.47)" fill="#FFFFFF"/>
</g>
<g id="Vector">
<use xlink:href="#path25_fill" transform="translate(-4919.77 4617.47)" fill="#FFFFFF"/>
</g>
<g id="Vector">
<use xlink:href="#path26_fill" transform="translate(-4908.65 4617.22)" fill="#FFFFFF"/>
</g>
<g id="Vector">
<use xlink:href="#path27_fill" transform="translate(-4897.04 4617.47)" fill="#FFFFFF"/>
</g>
<g id="Vector">
<use xlink:href="#path28_fill" transform="translate(-4885.43 4617.47)" fill="#FFFFFF"/>
</g>
<g id="Vector">
<use xlink:href="#path29_fill" transform="translate(-4878.1 4617.47)" fill="#FFFFFF"/>
</g>
<g id="Vector">
<use xlink:href="#path30_fill" transform="translate(-4867.34 4617.11)" fill="#FFFFFF"/>
</g>
</g>
</g>
<defs>
<path id="path0_fill" d="M 0 1.8628e-06L 13.4437 1.8628e-06L 13.4437 4.3949L 7.08852 4.3949L 7.08852 34.915L 0 34.915L 0 1.8628e-06Z"/>
<path id="path1_fill" d="M 7.6996 21.8524L 8.92176 4.3949L 9.28841 4.3949L 10.5106 21.8524L 7.6996 21.8524ZM 3.72973e-06 34.915L 6.84409 34.915L 7.45517 25.6369L 10.755 25.6369L 11.3661 34.915L 18.2102 34.915L 14.5437 1.8628e-06L 3.54426 1.8628e-06L 3.72973e-06 34.915Z"/>
<path id="path2_fill" d="M 6.96631 22.829L 6.96631 29.4214C 6.96631 30.2759 7.6996 30.5201 8.06624 30.5201C 8.67732 30.5201 9.16619 29.9097 9.16619 29.4214L 9.16619 21.242C 9.16619 20.1433 8.92176 18.9225 6.35523 18.9225L 3.54426 18.9225L 3.54426 15.0159L 6.47744 15.0159C 8.4329 15.0159 9.16619 14.5276 9.16619 12.4522L 9.16619 5.49362C 9.16619 4.88322 8.67732 4.3949 8.06624 4.3949C 7.6996 4.3949 6.96631 4.63905 6.96631 5.49362L 6.96631 11.2314L -1.86487e-06 11.2314L -1.86487e-06 6.2261C -1.86487e-06 3.78449 0.244434 -9.314e-07 5.25528 -9.314e-07L 11.1216 -9.314e-07C 16.0103 -9.314e-07 16.3769 3.78449 16.3769 6.2261L 16.3769 11.8418C 16.3769 15.6263 13.6882 16.725 11.6105 16.6029L 11.6105 16.9692C 16.2547 16.8471 16.3769 20.5095 16.3769 21.7303L 16.3769 28.811C 16.3769 31.2526 16.1325 35.0371 11.1216 35.0371L 5.25528 35.0371C 0.36665 35.0371 -1.86487e-06 31.2526 -1.86487e-06 28.811L -1.86487e-06 22.829L 6.96631 22.829Z"/>
<path id="path3_fill" d="M 3.72973e-06 1.8628e-06L 16.2547 1.8628e-06L 16.2547 34.915L 9.28841 34.915L 9.28841 4.3949L 7.08852 4.3949L 7.08852 34.915L 3.72973e-06 34.915L 3.72973e-06 1.8628e-06Z"/>
<path id="path4_fill" d="M 6.9663 19.2887L 6.9663 4.3949L 7.82181 4.3949C 8.5551 4.3949 9.16619 5.0053 9.16619 6.10402L 9.16619 17.4575C 9.16619 18.5562 8.5551 19.1666 7.82181 19.1666L 6.9663 19.1666L 6.9663 19.2887ZM 0 34.915L 6.9663 34.915L 6.9663 23.0732L 10.9994 23.0732C 15.8881 23.0732 16.2547 19.2887 16.2547 16.8471L 16.2547 6.2261C 16.2547 3.78449 16.0103 1.8628e-06 10.9994 1.8628e-06L 0 1.8628e-06L 0 34.915Z"/>
<path id="path5_fill" d="M 9.16619 29.2993C 9.16619 29.9097 8.67733 30.398 8.06625 30.398C 7.69961 30.398 6.9663 30.1539 6.9663 29.2993L 6.9663 5.49362C 6.9663 4.63906 7.69961 4.3949 8.06625 4.3949C 8.67733 4.3949 9.16619 5.0053 9.16619 5.49362L 9.16619 29.2993ZM 0 28.6889C 0 31.1305 0.244436 34.915 5.25529 34.915L 10.9994 34.915C 15.8881 34.915 16.2547 31.1305 16.2547 28.6889L 16.2547 6.2261C 16.2547 3.78449 16.0103 1.8628e-06 10.9994 1.8628e-06L 5.25529 1.8628e-06C 0.366651 1.8628e-06 0 3.78449 0 6.2261L 0 28.6889Z"/>
<path id="path6_fill" d="M 18.2102 1.8628e-06L 27.3764 1.8628e-06L 27.3764 34.915L 20.2878 34.915L 20.2878 13.0626L 20.0434 13.0626L 16.4991 34.915L 10.8772 34.915L 7.21074 13.0626L 6.9663 13.0626L 6.9663 34.915L -3.72973e-06 34.915L -3.72973e-06 1.8628e-06L 9.16619 1.8628e-06L 13.6882 24.5382L 18.2102 1.8628e-06Z"/>
<path id="path7_fill" d="M 2.56653 -1.8628e-06L 5.13306 10.2548C 5.25528 10.7431 5.3775 11.3535 5.3775 12.208C 5.49972 11.5976 5.49971 10.9872 5.74414 10.2548L 8.31068 -1.8628e-06L 10.8772 -1.8628e-06L 10.8772 13.1847L 9.41062 13.1847L 9.41062 2.31953C 9.41062 1.70913 9.41062 1.09872 9.41062 0.6104C 9.2884 1.34288 9.04398 1.83121 8.92176 2.31953L 6.11079 13.0626L 4.39977 13.0626L 1.83324 2.31953C 1.71102 1.83121 1.5888 1.46496 1.46659 0.732479C 1.46659 1.46496 1.46659 1.8312 1.46659 2.44161L 1.46659 13.1847L 0 13.1847L 0 -1.8628e-06L 2.56653 -1.8628e-06Z"/>
<path id="path8_fill" d="M 3.78869 -1.8628e-06L 5.74414 -1.8628e-06L 9.41062 13.1847L 7.82182 13.1847L 6.72187 9.4002L 2.56653 9.4002L 1.5888 13.1847L 1.86487e-06 13.1847L 3.78869 -1.8628e-06ZM 4.6442 1.09872L 2.93318 8.0573L 6.35522 8.0573L 4.6442 1.09872Z"/>
<path id="path9_fill" d="M 1.71102 -1.8628e-06L 4.52199 5.12738L 7.21074 -1.8628e-06L 8.92176 -1.8628e-06L 5.3775 6.47026L 8.92176 13.1847L 7.33295 13.1847L 4.52199 7.69107L 1.71102 13.1847L -1.86487e-06 13.1847L 3.66647 6.47026L 0.122212 -1.8628e-06L 1.71102 -1.8628e-06Z"/>
<path id="path10_fill" d="M 3.78869 -1.8628e-06L 5.74414 -1.8628e-06L 9.41062 13.1847L 7.82182 13.1847L 6.72187 9.4002L 2.56653 9.4002L 1.58881 13.1847L 0 13.1847L 3.78869 -1.8628e-06ZM 4.64421 1.09872L 2.81097 8.0573L 6.23301 8.0573L 4.64421 1.09872Z"/>
<path id="path11_fill" d="M 1.46659 -1.8628e-06L 1.46659 3.29618C 1.46659 5.12738 1.95546 5.6157 3.91091 5.6157C 4.52199 5.6157 5.37751 5.6157 6.1108 5.49362L 6.1108 -1.8628e-06L 7.57739 -1.8628e-06L 7.57739 13.1847L 5.98858 13.1847L 5.98858 6.8365C 5.25528 6.95858 4.15534 6.95859 3.54426 6.95859C 1.22216 6.95859 -1.86487e-06 6.10402 -1.86487e-06 3.54033L -1.86487e-06 -1.8628e-06L 1.46659 -1.8628e-06Z"/>
<path id="path12_fill" d="M 1.46659 6.8365L 6.23302 -1.8628e-06L 8.06625 -1.8628e-06L 3.9109 5.49362L 8.18846 13.1847L 6.47745 13.1847L 3.0554 6.71442L 1.46659 8.54563L 1.46659 13.1847L 0 13.1847L 0 -1.8628e-06L 1.46659 -1.8628e-06L 1.46659 6.8365Z"/>
<path id="path13_fill" d="M 3.7887 -1.8628e-06L 5.74414 -1.8628e-06L 9.41061 13.1847L 7.82182 13.1847L 6.72187 9.4002L 2.56654 9.4002L 1.58881 13.1847L -3.72973e-06 13.1847L 3.7887 -1.8628e-06ZM 4.6442 1.09872L 2.81096 8.0573L 6.23301 8.0573L 4.6442 1.09872Z"/>
<path id="path14_fill" d="M 9.28841 -1.8628e-06L 9.28841 13.1847L 7.82182 13.1847L 7.82182 1.34288L 3.42204 1.34288L 3.42204 6.59234C 3.42204 9.52227 3.42205 13.4288 0.855519 13.4288C 0.611087 13.4288 0.244424 13.4288 -7.45946e-06 13.3068L -7.45946e-06 11.9639C 0.244424 12.086 0.36664 12.086 0.611072 12.086C 1.95545 12.086 2.07768 10.0106 2.07768 5.85986L 2.07768 0.122077L 9.28841 0.122077L 9.28841 -1.8628e-06Z"/>
<path id="path15_fill" d="M 3.78869 -1.8628e-06L 5.74415 -1.8628e-06L 9.41063 13.1847L 7.82182 13.1847L 6.72187 9.4002L 2.56653 9.4002L 1.5888 13.1847L -7.45946e-06 13.1847L 3.78869 -1.8628e-06ZM 4.76642 1.09872L 3.05539 8.0573L 6.47744 8.0573L 4.76642 1.09872Z"/>
<path id="path16_fill" d="M 20.6984 20.7537C 18.2541 10.1327 12.1433 1.46496 11.2878 -4.657e-07C 9.94338 1.95329 5.05474 9.64435 2.61042 18.0679C -0.0783267 27.4681 -0.444973 35.8916 0.410538 44.1931C 1.38826 52.4946 4.81031 60.9181 4.81031 60.9181C 6.64355 65.313 9.45451 70.1962 11.2878 72.5158C 13.9765 69.0975 20.0873 58.8428 21.9205 45.4139C 23.0205 37.967 23.1427 31.3747 20.6984 20.7537ZM 11.2878 69.9521C 10.0656 67.7546 8.23235 63.3597 8.11014 56.7674C 8.11014 50.4192 10.6767 44.9256 11.41 43.7048C 12.021 44.8035 14.3432 49.6867 14.5876 56.157C 14.7098 62.6273 12.5099 67.6325 11.2878 69.9521ZM 19.9651 38.8216C 19.8429 42.8502 19.354 47.123 18.7429 49.6867C 18.9874 45.2918 18.3763 39.0657 17.3985 34.1825C 16.4208 29.2993 13.4876 21.242 11.1655 17.4575C 9.08786 20.9978 6.39912 28.0785 5.05474 34.1825C 3.71037 40.2865 3.58815 47.6114 3.58815 49.9309C 3.22151 48.0997 2.36599 41.3853 2.61042 34.6708C 2.85485 29.1772 4.07702 23.4394 4.81031 20.8758C 7.49906 12.208 10.5545 6.59234 11.1655 5.73778C 11.7766 6.59234 15.5653 13.4288 17.5208 20.6316C 19.7206 27.9564 20.0873 34.7929 19.9651 38.8216Z"/>
<path id="path17_fill" d="M 58.1747 39.6761L 39.7202 39.6761L 39.7202 52.0063C 44.1199 47.6114 51.2084 47.6114 55.486 52.0063C 59.8858 56.4011 59.8858 63.4818 55.486 67.7546C 55.486 67.7546 55.486 67.7546 55.3638 67.7546C 50.964 72.0275 45.3421 74.2249 39.5979 74.2249C 33.8538 74.2249 28.2319 72.0275 23.8321 67.7546C 16.1325 60.0636 15.277 48.2218 21.1433 39.5541C 21.8766 38.3333 22.8544 37.2345 23.8321 36.2579C 28.2319 31.863 33.8538 29.7876 39.5979 29.7876L 39.5979 1.8628e-06C 17.7213 1.8628e-06 0 17.8237 0 39.6761C 0 61.5285 17.8435 79.3523 39.7202 79.3523C 51.2084 79.3523 61.4746 74.4691 68.6853 66.778L 68.6853 39.6761L 58.1747 39.6761Z"/>
<path id="path18_fill" d="M 140.548 0L 0 0L 0 21.8524L 140.548 21.8524L 140.548 0Z"/>
<path id="path19_fill" d="M 4.6442 0L 5.62193 5.37154C 5.86636 6.47026 5.98858 8.30147 6.1108 9.52228C 6.23301 8.30147 6.35523 6.34818 6.59966 5.37154L 7.57738 0L 11.9772 0L 11.9772 13.0626L 8.92175 13.0626L 8.92175 8.42355C 8.92175 7.20275 9.04398 3.78449 9.04398 2.68577L 7.08852 13.0626L 4.88864 13.0626L 2.93318 2.68577C 2.93318 3.54033 3.0554 6.59234 3.0554 8.42355L 3.0554 13.0626L 1.86487e-06 13.0626L 1.86487e-06 0L 4.6442 0Z"/>
<path id="path20_fill" d="M 1.86487e-06 0L 7.33295 0L 7.33295 2.44161L 3.17761 2.44161L 3.17761 5.0053L 6.84409 5.0053L 6.84409 7.56898L 3.17761 7.56898L 3.17761 10.621L 7.33295 10.621L 7.33295 13.0626L 1.86487e-06 13.0626L 1.86487e-06 0Z"/>
<path id="path21_fill" d="M 8.67732 0L 8.67732 5.24946L 10.8772 0L 14.2993 0L 11.3661 5.73778L 14.2993 13.0626L 10.9994 13.0626L 9.53284 8.54563L 8.67732 10.0106L 8.67732 13.0626L 5.62193 13.0626L 5.62193 10.0106L 4.76642 8.54563L 3.29983 13.0626L -1.86487e-06 13.0626L 2.93318 5.73778L -1.86487e-06 0L 3.42205 0L 5.62193 5.24946L 5.62193 0L 8.67732 0Z"/>
<path id="path22_fill" d="M 3.17761 13.0626L 1.86487e-06 13.0626L 1.86487e-06 0L 4.6442 0C 6.47744 0 8.4329 0.610406 8.4329 4.02866C 8.4329 7.20275 6.47744 8.05731 4.6442 8.05731L 3.17761 8.05731L 3.17761 13.0626ZM 3.17761 5.6157L 3.78869 5.6157C 4.52199 5.6157 5.3775 5.24945 5.3775 3.90657C 5.3775 2.56369 4.6442 2.31953 3.78869 2.31953L 3.29983 2.31953L 3.29983 5.6157L 3.17761 5.6157Z"/>
<path id="path23_fill" d="M -3.72973e-06 0L 7.33295 0L 7.33295 2.44161L 3.17762 2.44161L 3.17762 5.0053L 6.96631 5.0053L 6.96631 7.56898L 3.17762 7.56898L 3.17762 10.621L 7.33295 10.621L 7.33295 13.0626L -3.72973e-06 13.0626L -3.72973e-06 0Z"/>
<path id="path24_fill" d="M 7.33294 0L 7.33294 2.44161L 3.17761 2.44161L 3.17761 13.0626L 1.86487e-06 13.0626L 1.86487e-06 0L 7.33294 0Z"/>
<path id="path25_fill" d="M 2.93318 0L 2.93318 3.29617C 2.93318 4.76113 2.56654 6.83651 2.44432 8.30147L 5.13307 0.122079L 8.18847 0.122079L 8.18847 13.1847L 5.13307 13.1847L 5.13307 10.1327C 5.13307 8.66771 5.62193 6.59235 5.74415 5.24946L 3.0554 13.1847L 7.45946e-06 13.1847L 7.45946e-06 0L 2.93318 0Z"/>
<path id="path26_fill" d="M 8.55511 3.66858L 8.55511 9.52843C 8.55511 12.0921 7.21073 13.6792 4.27755 13.6792C 1.34437 13.6792 -3.72973e-06 12.2142 -3.72973e-06 9.52843L -3.72973e-06 3.66858C -3.72973e-06 1.59321 1.34437 0.00616312 4.27755 0.00616312C 7.33295 -0.115917 8.55511 1.59321 8.55511 3.66858ZM 3.17762 3.42441L 3.17762 10.0168C 3.17762 10.7492 3.66647 11.2376 4.27755 11.2376C 4.76641 11.2376 5.37751 10.8713 5.37751 10.0168L 5.37751 3.42441C 5.37751 2.69193 4.76641 2.32568 4.27755 2.32568C 3.78869 2.32568 3.17762 2.69193 3.17762 3.42441Z"/>
<path id="path27_fill" d="M 3.17762 5.0053L 5.25528 5.0053L 5.25528 0L 8.4329 0L 8.4329 13.0626L 5.25528 13.0626L 5.25528 7.56898L 3.17762 7.56898L 3.17762 13.0626L -3.72973e-06 13.0626L -3.72973e-06 0L 3.17762 0L 3.17762 5.0053Z"/>
<path id="path28_fill" d="M 7.33295 0L 7.33295 2.44161L 3.05539 2.44161L 3.05539 13.0626L -3.72973e-06 13.0626L -3.72973e-06 0L 7.33295 0Z"/>
<path id="path29_fill" d="M 6.59966 0L 9.53284 13.0626L 6.47744 13.0626L 5.98858 10.3768L 3.54427 10.3768L 3.17762 13.0626L -3.72973e-06 13.0626L 2.81096 0L 6.59966 0ZM 5.49971 8.05731L 4.6442 2.31953L 3.7887 8.05731L 5.49971 8.05731Z"/>
<path id="path30_fill" d="M 3.47358e-14 4.27281C 3.47358e-14 1.58704 1.71102 -3.7256e-06 3.9109 -3.7256e-06C 6.35522 -3.7256e-06 7.82181 1.58705 7.82181 3.41825C 7.82181 5.0053 7.33294 5.85986 5.98857 6.47026C 7.33294 6.95858 8.31068 7.56899 8.31068 9.88852C 8.31068 12.4522 6.59965 13.673 4.15533 13.673C 2.19988 13.673 3.47358e-14 12.8184 3.47358e-14 9.40019L 2.93317 9.40019C 2.93317 10.8652 3.29983 11.2314 4.03313 11.2314C 4.88864 11.2314 5.13306 10.8652 5.13306 9.40019C 5.13306 8.17939 4.76643 7.69107 3.7887 7.69107L 3.29982 7.69107L 3.29982 5.37154L 4.03313 5.37154C 4.52199 5.37154 5.01086 4.88322 5.01086 3.90658C 5.01086 2.92993 4.6442 2.31953 3.9109 2.31953C 3.05539 2.31953 2.81097 2.92993 2.81097 4.27281L 3.47358e-14 4.27281Z"/>
</defs>
</svg>
